# xmcd
#
# Track frame offsets:
#	150
#	25205
#	49132
#	72367
#	94547
#	124657
#	152125
#	173690
#	189180
#	207932
#
# Disc length: 3108 seconds
#
# Revision: 1
# Processed by: cddbd v1.5.2PL0 Copyright (c) Steve Scherf et al.
# Submitted via: EZCDAudioConverter 2.5.0.1
#
DISCID=7d0c220a
DTITLE=Various Artist - Khi Tinh Da Xa
DYEAR=1991
DGENRE=Vietnamese
TTITLE0=Ngoc Lan - Khuc thuy du
TTITLE1=Ngoc Lan - Tra lai thoang may bay
TTITLE2=Duy Quang - Nang
TTITLE3=Ngoc Lan - Tieng ca dem
TTITLE4=Tuan Anh - Muoi nam yeu em
TTITLE5=Ngoc Lan - Xa anh nghin trung
TTITLE6=Tuan Ngoc - Nhung nu hon doi
TTITLE7=Ngoc Lan - Tinh ghen
TTITLE8=Ngoc Lan - Sao anh khong den
TTITLE9=Ngoc Lan, Duy Quang - Nguoi o lai Charlie
EXTD=
EXTT0=
EXTT1=
EXTT2=
EXTT3=
EXTT4=
EXTT5=
EXTT6=
EXTT7=
EXTT8=
EXTT9=
PLAYORDER=
